# xmcd
#
# Track frame offsets: 
#        150
#        2100
#        17490
#        32940
#        49406
#        64992
#        81129
#        97482
#        101623
#        117236
#        135599
#        150753
#
# Disc length: 2275 seconds
#
# Revision: 1
# Processed by: cddbd v1.5.2PL0 Copyright (c) Steve Scherf et al.
# Submitted via: ExactAudioCopy v0.99pb4
#
DISCID=9908e10c
DTITLE=Nineteen88 - The Great American Rock and Roll Spectacle
DYEAR=2004
DGENRE=Hard Rock
TTITLE0=Welcome to the Show
TTITLE1=Big Rawk
TTITLE2=Pedal to the Metal
TTITLE3=Play Your Guitar
TTITLE4=Highway of Rock and Roll
TTITLE5=the Metal Pokey
TTITLE6=Rock All Day
TTITLE7=Whatever
TTITLE8=Hard Rock Girls
TTITLE9=Rock and Roll
TTITLE10=Where Did the 80's Go
TTITLE11=U.S.A.
EXTD=
EXTT0=
EXTT1=
EXTT2=
EXTT3=
EXTT4=
EXTT5=
EXTT6=
EXTT7=
EXTT8=
EXTT9=
EXTT10=
EXTT11=
PLAYORDER=
